<?xml version="1.0" standalone="no"?><!DOCTYPE svg PUBLIC "-//W3C//DTD SVG 1.1//EN" "http://www.w3.org/Graphics/SVG/1.1/DTD/svg11.dtd"><svg t="1622257108570" class="icon" viewBox="0 0 1450 1024" version="1.1" xmlns="http://www.w3.org/2000/svg" p-id="4791" xmlns:xlink="http://www.w3.org/1999/xlink" width="283.203125" height="200"><defs><style type="text/css"></style></defs><path d="M890.709333 586.410667a320.512 320.512 0 0 0 140.885334-265.386667A320.938667 320.938667 0 0 0 710.997333 0.597333a320.938667 320.938667 0 0 0-320.597333 320.597334c0 106.325333 52.906667 205.738667 140.970667 265.386666a457.557333 457.557333 0 0 0-276.992 420.010667h91.818666A365.226667 365.226667 0 0 1 710.997333 641.706667a365.226667 365.226667 0 0 1 364.8 364.8h91.818667a457.557333 457.557333 0 0 0-276.906667-420.096zM482.133333 321.024a228.949333 228.949333 0 0 1 228.693334-228.693333 229.034667 229.034667 0 0 1 228.864 228.693333 229.034667 229.034667 0 0 1-228.778667 228.778667 228.949333 228.949333 0 0 1-228.693333-228.693334H482.133333z" p-id="4792"></path><path d="M370.688 551.253333a171.434667 171.434667 0 0 1-171.178667-171.264c0-80.981333 57.429333-151.552 136.618667-167.68l-18.346667-90.026666A262.997333 262.997333 0 0 0 209.834667 587.946667 371.029333 371.029333 0 0 0 0 921.770667h91.818667a279.04 279.04 0 0 1 278.784-278.698667V551.168z m841.472 36.693334a262.997333 262.997333 0 0 0-107.861333-465.664l-18.432 89.941333a171.690667 171.690667 0 0 1 136.618666 167.765333 171.434667 171.434667 0 0 1-171.178666 171.178667v91.818667a279.04 279.04 0 0 1 278.784 278.784h91.818666a371.029333 371.029333 0 0 0-209.749333-333.824z" p-id="4793"></path></svg>