<?xml version="1.0" standalone="no"?><!DOCTYPE svg PUBLIC "-//W3C//DTD SVG 1.1//EN" "http://www.w3.org/Graphics/SVG/1.1/DTD/svg11.dtd"><svg t="1622257114330" class="icon" viewBox="0 0 1024 1024" version="1.1" xmlns="http://www.w3.org/2000/svg" p-id="4920" xmlns:xlink="http://www.w3.org/1999/xlink" width="200" height="200"><defs><style type="text/css"></style></defs><path d="M510.208 49.361455l9.890909 6.912 9.495273 6.376727a954.484364 954.484364 0 0 0 80.337454 47.476363c29.626182 15.592727 58.717091 28.695273 86.621091 38.632728 71.144727 25.250909 134.237091 34.862545 183.365818 34.862545l5.678546-0.093091 6.120727-0.232727 4.980364-0.349091v396.846546c0 163.816727-232.96 394.24-386.606546 394.24-150.667636 0-382.045091-221.719273-387.397818-388.398546l-0.093091-5.841454V183.808h7.912728a621.125818 621.125818 0 0 0 194.862545-35.467636l13.358545-4.887273 5.189819-2.048c9.658182-3.863273 19.851636-8.331636 30.487272-13.405091a842.123636 842.123636 0 0 0 45.381819-23.389091c21.178182-11.682909 42.193455-24.203636 62.04509-36.747636l9.937455-6.330182 18.432-12.171636zM509.672727 133.352727l-9.495272 5.864728c-47.895273 29.184-94.952727 53.992727-136.308364 69.818181a695.575273 695.575273 0 0 1-160.814546 39.796364l-10.170181 1.163636V579.723636c0 27.764364 9.588364 60.509091 27.834181 95.115637l4.049455 7.447272c21.015273 37.562182 51.223273 75.915636 87.202909 110.592 67.537455 65.28 149.410909 110.871273 198.190546 110.871273 23.202909 0 54.946909-10.379636 89.134545-29.253818a510.836364 510.836364 0 0 0 100.096-74.170182l9.937455-9.728 6.981818-6.981818c66.001455-67.490909 107.310545-142.359273 109.986909-198.190545l0.139636-5.701819V250.624l-8.052363-0.884364a674.909091 674.909091 0 0 1-131.537455-30.021818l-13.870545-4.770909c-50.990545-18.152727-103.261091-44.753455-152.436364-74.845091l-10.868364-6.749091z" p-id="4921"></path><path d="M507.345455 292.398545a35.141818 35.141818 0 0 0-31.930182 35.002182l-0.023273 149.573818H325.818182a35.141818 35.141818 0 0 0-35.141818 35.141819l0.139636 3.188363A35.141818 35.141818 0 0 0 325.818182 547.258182h149.643636v149.643636c0 19.409455 15.732364 35.141818 35.141818 35.141818l3.211637-0.139636a35.141818 35.141818 0 0 0 31.930182-35.002182v-149.597091h149.643636a35.141818 35.141818 0 0 0 35.141818-35.141818l-0.139636-3.188364a35.048727 35.048727 0 0 0-35.002182-31.883636h-149.713455v-149.690182a35.141818 35.141818 0 0 0-35.141818-35.141818l-3.188363 0.139636z" p-id="4922"></path></svg>