<?xml version="1.0" standalone="no"?><!DOCTYPE svg PUBLIC "-//W3C//DTD SVG 1.1//EN" "http://www.w3.org/Graphics/SVG/1.1/DTD/svg11.dtd"><svg t="1622257117980" class="icon" viewBox="0 0 1025 1024" version="1.1" xmlns="http://www.w3.org/2000/svg" p-id="5049" xmlns:xlink="http://www.w3.org/1999/xlink" width="200.1953125" height="200"><defs><style type="text/css"></style></defs><path d="M976.64064 595.2a44.8 44.8 0 0 1 44.352 38.72l0.384 6.08v162.432a44.8 44.8 0 0 1-89.152 6.08l-0.448-6.08 0.064-59.84A492.736 492.736 0 0 1 496.19264 1004.8a492.8 492.8 0 0 1-445.312-281.536 44.8 44.8 0 1 1 80.96-38.4A403.2 403.2 0 0 0 496.19264 915.2a403.2 403.2 0 0 0 364.416-230.4h-44.416a44.8 44.8 0 0 1-44.352-38.72L771.39264 640a44.8 44.8 0 0 1 38.72-44.416l6.08-0.384h160.384zM492.16064 226.368a160 160 0 0 1 111.936 274.304c63.232 37.44 109.44 105.792 122.688 187.136l1.92 16.192-473.024-1.6c10.496-86.784 58.368-161.344 124.928-201.408a160 160 0 0 1 111.552-274.56zM509.63264 19.2c213.632 0 399.36 145.152 459.072 352.384a44.8 44.8 0 1 1-86.08 24.832C833.72864 226.88 682.62464 108.8 509.63264 108.8c-165.12 0-310.208 107.52-365.632 264.768h61.632a44.8 44.8 0 0 1 44.416 38.784l0.384 6.08a44.8 44.8 0 0 1-38.72 44.352l-6.08 0.448H45.24864a44.8 44.8 0 0 1-44.352-38.72l-0.448-6.08V256a44.8 44.8 0 0 1 89.216-6.08L90.04864 256v18.368C172.41664 120.384 331.32864 19.2 509.63264 19.2z" p-id="5050"></path></svg>