<?xml version="1.0" standalone="no"?><!DOCTYPE svg PUBLIC "-//W3C//DTD SVG 1.1//EN" "http://www.w3.org/Graphics/SVG/1.1/DTD/svg11.dtd"><svg class="icon" width="200px" height="189.63px" viewBox="0 0 1080 1024" version="1.1" xmlns="http://www.w3.org/2000/svg"><path  d="M963.470222 15.928889a42.666667 42.666667 0 0 1 42.268445 36.864l0.398222 5.802667v184.035555a42.666667 42.666667 0 0 1-84.992 5.745778l-0.341333-5.745778-0.056889-76.629333-250.026667 217.884444-168.106667-94.833778-189.781333 141.084445a42.666667 42.666667 0 0 1-55.523556-4.039111l-4.152888-4.778667a42.666667 42.666667 0 0 1 3.982222-55.580444l4.778666-4.152889 234.382223-174.08 163.84 92.444444 205.084444-178.744889-67.128889 0.056889a42.666667 42.666667 0 0 1-42.268444-36.864l-0.398222-5.802666a42.666667 42.666667 0 0 1 36.864-42.268445L798.151111 15.928889h165.376zM586.410667 14.222222l5.802666 0.398222a42.666667 42.666667 0 0 1-5.802666 84.935112h-399.928889l-6.371556 0.341333a58.481778 58.481778 0 0 0-52.110222 58.140444v707.925334l0.341333 6.371555c3.185778 29.297778 27.989333 52.110222 58.140445 52.110222l88.632889 0.056889a42.439111 42.439111 0 0 1-1.536-6.940444l-0.398223-5.745778v-130.56a42.666667 42.666667 0 0 1 84.935112-5.802667l0.398222 5.802667v130.56a42.666667 42.666667 0 0 1-1.934222 12.686222l112.753777-0.056889V512a42.666667 42.666667 0 0 1 84.935111-5.802667L554.666667 512v412.444444l172.600889 0.056889a42.439111 42.439111 0 0 1-1.536-6.940444l-0.398223-5.745778V625.777778a42.666667 42.666667 0 0 1 84.935111-5.802667l0.398223 5.802667v286.037333a42.666667 42.666667 0 0 1-1.934223 12.686222l85.674667-0.056889 6.371556-0.341333c29.297778-3.185778 52.110222-27.989333 52.110222-58.140444V460.288l0.398222-5.802667a42.666667 42.666667 0 0 1 84.935111 5.802667v405.674667l-0.284444 9.443555a143.815111 143.815111 0 0 1-143.530667 134.371556H186.481778l-9.443556-0.284445A143.815111 143.815111 0 0 1 42.666667 865.962667V158.037333l0.284444-9.443555A143.815111 143.815111 0 0 1 186.481778 14.222222h399.928889z" /></svg>