<svg width="12" height="12" viewBox="0 0 12 12" fill="none" xmlns="http://www.w3.org/2000/svg">
<path d="M0.54196 0.107934H5.16896C5.63996 0.154934 5.52696 0.982934 5.52696 1.52193V4.08393C5.52696 4.64093 5.63096 5.32393 5.26296 5.48193C5.02296 5.58493 4.37796 5.51193 4.06696 5.51193H1.61296C1.04596 5.51193 0.27096 5.64793 0.18396 5.15493V0.464934C0.209956 0.380835 0.25619 0.3044 0.318607 0.242331C0.381024 0.180263 0.457717 0.134458 0.54196 0.108934V0.107934ZM1.17796 1.16393V4.50393H4.51796V1.11693H1.19296C1.17496 1.11893 1.17596 1.14093 1.17696 1.16293L1.17796 1.16393ZM6.75296 0.107934H11.381C11.57 0.177934 11.7 0.307934 11.738 0.527934V5.09293C11.696 5.28293 11.597 5.44493 11.412 5.49693C11.11 5.58193 10.609 5.51293 10.247 5.51293H7.87096C7.51296 5.51293 6.98196 5.58793 6.69096 5.49693C6.28096 5.36893 6.39596 4.56693 6.39596 4.00693V1.61393C6.39596 0.965934 6.25396 0.197934 6.75296 0.106934V0.107934ZM7.38996 1.16393V4.50393H10.729V1.11693H7.40596C7.38696 1.11893 7.38896 1.14093 7.38996 1.16293V1.16393Z" fill="#868686"/>
<path d="M2.69996 2.14284C3.16496 2.05484 3.52996 2.36884 3.53896 2.79484C3.54351 2.9157 3.51621 3.03564 3.45979 3.14262C3.40338 3.24961 3.31983 3.33989 3.21753 3.40441C3.11523 3.46893 2.99777 3.50543 2.87692 3.51024C2.75606 3.51506 2.63607 3.48802 2.52896 3.43184C2.01896 3.16484 2.05196 2.26484 2.69996 2.14184V2.14284ZM8.91196 2.14284C10.007 1.93784 9.98596 3.67284 8.91196 3.49284C8.22796 3.37984 8.20596 2.27484 8.91196 2.14284ZM5.13796 11.8178H0.55796C0.467846 11.795 0.385547 11.7484 0.31973 11.6827C0.253912 11.6171 0.207009 11.5349 0.18396 11.4448V6.76984C0.22996 6.63284 0.33396 6.47284 0.49496 6.42784C0.79896 6.34184 1.29496 6.41184 1.65996 6.41184H4.03596C4.38596 6.41184 4.89796 6.33384 5.21596 6.42784C5.64596 6.55484 5.52596 7.34384 5.52596 7.90284V10.3728C5.52596 10.9758 5.65596 11.7628 5.13796 11.8168V11.8178ZM1.17796 7.46884V10.8088H4.51796V7.42184H1.19296C1.17496 7.42384 1.17596 7.44584 1.17696 7.46784L1.17796 7.46884ZM11.738 6.83284V8.13684C11.702 8.57684 11.733 9.08384 11.723 9.54984H8.41496V8.78984C8.10496 8.75284 7.72696 8.78384 7.38996 8.77384C7.35396 9.75684 7.38496 10.8078 7.37496 11.8178H6.76896C6.24896 11.7128 6.39596 10.9318 6.39596 10.3108V7.90384C6.39596 7.54184 6.32296 6.99984 6.41196 6.70784C6.51796 6.36084 6.97696 6.41284 7.43696 6.41284H9.68796V8.47984H10.728C10.739 7.79584 10.708 7.07184 10.744 6.41384C11.245 6.38384 11.709 6.39184 11.738 6.83384V6.83284Z" fill="#868686"/>
<path d="M2.77792 8.43186C2.8968 8.4188 3.01703 8.43687 3.12682 8.48429C3.23661 8.53171 3.33219 8.60685 3.40419 8.70234C3.47619 8.79783 3.52213 8.9104 3.53751 9.029C3.55289 9.1476 3.53718 9.26816 3.49192 9.37886C3.22492 10.1069 1.94892 9.83386 2.18792 8.91386C2.25392 8.65886 2.44492 8.46886 2.77792 8.43186ZM9.53292 11.8179H8.41492C8.42492 11.4189 8.39492 10.9789 8.43092 10.6059H9.53292V11.8179ZM11.7379 10.6059V11.3979C11.7233 11.4964 11.6803 11.5885 11.6143 11.6631C11.5482 11.7377 11.462 11.7914 11.3659 11.8179H10.5739C10.5839 11.4189 10.5529 10.9789 10.5889 10.6059H11.7389H11.7379Z" fill="#868686"/>
</svg>
