<?xml version="1.0" encoding="UTF-8"?>
<svg width="53px" height="34px" viewBox="0 0 53 34" version="1.1" xmlns="http://www.w3.org/2000/svg" xmlns:xlink="http://www.w3.org/1999/xlink">
    <title>上传</title>
    <g id="页面-1" stroke="none" stroke-width="1" fill="none" fill-rule="evenodd">
        <g id="素材库-PDF备份" transform="translate(-694.000000, -371.000000)" fill="#1990FF">
            <g id="编组-18" transform="translate(515.000000, 260.000000)">
                <g id="上传" transform="translate(179.000000, 111.000000)">
                    <path d="M44.1647959,14.8702382 C44.1647959,14.8702382 43.8002359,2.87323928 34.0277968,0.488719496 C24.2553577,-1.89580029 19.5458381,8.40115878 19.4491181,8.69503875 C19.3523981,8.98891873 18.8725182,8.85499874 18.8725182,8.85499874 C18.0913183,8.11471881 14.6465986,6.41467896 11.0270389,8.59459876 C7.41119922,10.7745186 8.7206391,14.9148782 8.7206391,14.9148782 C8.7206391,14.9148782 3.36011959,14.4796382 0.611039834,22.7566375 C-2.13431992,31.0410767 7.49675921,33.3883965 7.49675921,33.3883965 L23.6638778,33.3883965 L23.6638778,24.5757173 L20.427478,24.5757173 L20.1447581,24.5757173 L19.9252781,24.5757173 L19.9252781,24.5608373 C19.7392781,24.5608373 19.5904781,24.4120373 19.5904781,24.2223174 C19.5904781,24.1107174 19.6499981,24.0139974 19.7392781,23.9507574 L26.3645975,16.983198 C26.4575975,16.879038 26.5877975,16.808358 26.7403175,16.808358 C26.8965575,16.808358 27.0341974,16.886478 27.1271974,17.001798 L33.7041568,23.9135574 C33.7153168,23.9209974 33.7264768,23.9321574 33.7376368,23.9433174 L33.8008768,24.0102774 L33.7785568,24.0102774 C33.8120368,24.0697974 33.8343568,24.1218774 33.8343568,24.1925574 C33.8343568,24.4008773 33.6669568,24.5719973 33.4549169,24.5719973 C33.4474769,24.5719973 33.4474769,24.5645573 33.4400369,24.5645573 L33.4400369,24.5794373 L29.8762772,24.5794373 L29.8762772,33.3921165 L44.5516759,33.3921165 C44.5516759,33.3921165 51.5489952,31.6399967 52.1665152,24.4157573 C52.7914751,17.191518 44.1647959,14.8702382 44.1647959,14.8702382 Z" id="路径"></path>
                </g>
            </g>
        </g>
    </g>
</svg>